<svg xmlns="http://www.w3.org/2000/svg" xmlns:xlink="http://www.w3.org/1999/xlink" width="88.28" height="64" viewBox="0 0 88.28 64">
  <defs>
    <style>
      .cls-1 {
        fill: none;
      }

      .cls-2 {
        fill: #1b325f;
      }

      .cls-3 {
        fill: #fff;
      }

      .cls-4 {
        clip-path: url(#clip-path);
      }

      .cls-5 {
        fill: #a91d34;
      }

      .cls-6 {
        opacity: 0.8;
      }

      .cls-7 {
        clip-path: url(#clip-path-2);
      }

      .cls-8 {
        opacity: 0.6;
      }

      .cls-9 {
        clip-path: url(#clip-path-3);
      }

      .cls-10 {
        opacity: 0.4;
      }

      .cls-11 {
        opacity: 0.2;
      }

      .cls-12 {
        clip-path: url(#clip-path-6);
      }

      .cls-13 {
        clip-path: url(#clip-path-7);
      }
    </style>
    <clipPath id="clip-path">
      <rect id="Rectangle_21" data-name="Rectangle 21" class="cls-1" width="88" height="64" transform="translate(-0.487 -0.487)"/>
    </clipPath>
    <clipPath id="clip-path-2">
      <rect id="Rectangle_4" data-name="Rectangle 4" class="cls-1" width="17.559" height="9.042"/>
    </clipPath>
    <clipPath id="clip-path-3">
      <rect id="Rectangle_6" data-name="Rectangle 6" class="cls-1" width="17.558" height="9.042"/>
    </clipPath>
    <clipPath id="clip-path-6">
      <rect id="Rectangle_13" data-name="Rectangle 13" class="cls-1" width="17.559" height="18.085"/>
    </clipPath>
    <clipPath id="clip-path-7">
      <rect id="Rectangle_15" data-name="Rectangle 15" class="cls-1" width="17.558" height="18.085"/>
    </clipPath>
  </defs>
  <g id="Group_43506" data-name="Group 43506" transform="translate(0.487 0.487)">
    <g id="Group_17268" data-name="Group 17268">
      <rect id="Rectangle_1" data-name="Rectangle 1" class="cls-2" width="87.792" height="27.209" transform="translate(0 27.016)"/>
      <path id="Path_1" data-name="Path 1" class="cls-3" d="M57.257,370.226H60.9l-.416,2.03H56.839l-.7,3.4H53.754l1.906-9.282H62l-.417,2.029H57.629Z" transform="translate(-48.457 -330.405)"/>
      <path id="Path_2" data-name="Path 2" class="cls-3" d="M121.014,374.063l-.768,1.6h-2.478l4.58-9.282h3.627l.818,9.282h-2.435l-.138-1.6Zm2.815-5.829h-.021l-1.91,4.022h2.219Z" transform="translate(-106.164 -330.405)"/>
      <g id="Group_26" data-name="Group 26" transform="translate(0 0)">
        <g id="Group_25" data-name="Group 25" class="cls-4">
          <path id="Path_3" data-name="Path 3" class="cls-3" d="M221.167,369.314c2.617.2,3.205.543,2.765,2.665-.314,1.529-.564,3.033-4.52,3.033-2.285,0-3.8-.046-3.172-3.082h2.3c-.2.961.118,1.062,1.29,1.062,1.126,0,1.512-.075,1.674-.852.164-.8.031-.79-1.08-.864l-.518-.037c-2.184-.16-3.48-.149-2.933-2.8s2.031-2.827,4.378-2.827c1.967,0,3.636.037,3.11,2.593l-.081.382h-2.3c.2-.949-.189-.949-1.145-.949-1.292,0-1.459.27-1.562.79-.157.74.187.763.814.812Z" transform="translate(-194.713 -329.697)"/>
          <path id="Path_4" data-name="Path 4" class="cls-3" d="M310.475,375.627h-2.393l1.465-7.106h-2.3l.444-2.149H314.8l-.442,2.149h-2.417Z" transform="translate(-276.841 -330.382)"/>
          <path id="Path_5" data-name="Path 5" class="cls-3" d="M382.687,395.756a2.652,2.652,0,0,1-2.126.63c-1.728,0-2.894-.184-2.479-2.2.181-.881.542-1.8,1.57-1.818a1.074,1.074,0,0,1-.269-1.175c.328-1.593,1.138-1.862,2.635-1.862,1.529,0,2.308.221,1.944,1.9l-.074.352h-1.546c.09-.388.116-.6.035-.722s-.275-.147-.645-.147c-.459,0-.617.11-.72.61a.7.7,0,0,0,.218.685l1.342,1.519.189-.916h1.43l-.28,1.36a1.9,1.9,0,0,1-.32.677l.6.693-1,1Zm-2.329-2.586c-.442.046-.514.482-.583.824-.194.936.269.918,1.087.918a2.3,2.3,0,0,0,.956-.148Z" transform="translate(-340.59 -351.082)"/>
          <path id="Path_6" data-name="Path 6" class="cls-3" d="M470.01,370.214h3.667l-.42,2.024h-3.666l-.7,3.393h-2.4l1.909-9.254h6.374l-.42,2.023h-3.973Z" transform="translate(-420.33 -330.386)"/>
          <path id="Path_7" data-name="Path 7" class="cls-3" d="M543.137,373.483h3.751l-.444,2.148H540.3l1.908-9.255h2.4Z" transform="translate(-486.831 -330.386)"/>
          <path id="Path_8" data-name="Path 8" class="cls-3" d="M624.377,366.375l-1.274,6.168c-.506,2.469-1.778,3.158-4.412,3.158-3.593,0-3.783-.937-3.324-3.158l1.272-6.168h2.395l-1.259,6.121c-.217,1.048.354,1.06,1.361,1.06s1.383-.086,1.6-1.171l1.242-6.01Z" transform="translate(-554.305 -330.385)"/>
          <path id="Path_9" data-name="Path 9" class="cls-3" d="M705.046,375.627h-2.4l1.909-9.255h2.4Z" transform="translate(-633.114 -330.382)"/>
          <path id="Path_10" data-name="Path 10" class="cls-3" d="M741.426,366.377h4.551c2.5,0,3.42.964,2.877,3.589l-.4,1.937c-.524,2.531-1.562,3.728-4.064,3.728h-4.876Zm.928,7.107h2.1c.887,0,1.334-.605,1.537-1.581l.4-1.937c.248-1.2-.072-1.441-.912-1.441h-2.1Z" transform="translate(-666.33 -330.387)"/>
          <rect id="Rectangle_2" data-name="Rectangle 2" class="cls-5" width="17.558" height="9.042" transform="translate(0 18.084)"/>
          <g id="Group_3" data-name="Group 3" class="cls-6" transform="translate(17.558 18.084)">
            <g id="Group_2" data-name="Group 2">
              <g id="Group_1" data-name="Group 1" class="cls-7">
                <rect id="Rectangle_3" data-name="Rectangle 3" class="cls-5" width="17.559" height="9.042"/>
              </g>
            </g>
          </g>
          <g id="Group_6" data-name="Group 6" class="cls-8" transform="translate(35.118 18.084)">
            <g id="Group_5" data-name="Group 5">
              <g id="Group_4" data-name="Group 4" class="cls-9">
                <rect id="Rectangle_5" data-name="Rectangle 5" class="cls-5" width="17.558" height="9.042"/>
              </g>
            </g>
          </g>
          <g id="Group_9" data-name="Group 9" class="cls-10" transform="translate(52.675 18.084)">
            <g id="Group_8" data-name="Group 8">
              <g id="Group_7" data-name="Group 7" class="cls-9">
                <rect id="Rectangle_7" data-name="Rectangle 7" class="cls-5" width="17.558" height="9.042"/>
              </g>
            </g>
          </g>
          <g id="Group_12" data-name="Group 12" class="cls-11" transform="translate(70.234 18.084)">
            <g id="Group_11" data-name="Group 11">
              <g id="Group_10" data-name="Group 10" class="cls-7">
                <rect id="Rectangle_9" data-name="Rectangle 9" class="cls-5" width="17.559" height="9.042"/>
              </g>
            </g>
          </g>
          <rect id="Rectangle_11" data-name="Rectangle 11" class="cls-2" width="17.558" height="18.085"/>
          <g id="Group_15" data-name="Group 15" class="cls-6" transform="translate(17.558)">
            <g id="Group_14" data-name="Group 14">
              <g id="Group_13" data-name="Group 13" class="cls-12">
                <rect id="Rectangle_12" data-name="Rectangle 12" class="cls-2" width="17.559" height="18.085"/>
              </g>
            </g>
          </g>
          <g id="Group_18" data-name="Group 18" class="cls-8" transform="translate(35.118)">
            <g id="Group_17" data-name="Group 17">
              <g id="Group_16" data-name="Group 16" class="cls-13">
                <rect id="Rectangle_14" data-name="Rectangle 14" class="cls-2" width="17.558" height="18.085"/>
              </g>
            </g>
          </g>
          <g id="Group_21" data-name="Group 21" class="cls-10" transform="translate(52.675)">
            <g id="Group_20" data-name="Group 20">
              <g id="Group_19" data-name="Group 19" class="cls-13">
                <rect id="Rectangle_16" data-name="Rectangle 16" class="cls-2" width="17.558" height="18.085"/>
              </g>
            </g>
          </g>
          <g id="Group_24" data-name="Group 24" class="cls-11" transform="translate(70.234)">
            <g id="Group_23" data-name="Group 23">
              <g id="Group_22" data-name="Group 22" class="cls-12">
                <rect id="Rectangle_18" data-name="Rectangle 18" class="cls-2" width="17.559" height="18.085"/>
              </g>
            </g>
          </g>
          <path id="Path_11" data-name="Path 11" d="M1.406,588.364l1.775-4.923H4.365l1.754,4.923H4.991l-.317-1.015H2.843L2.5,588.364ZM3.12,586.5H4.385l-.617-1.95H3.753Z" transform="translate(-1.267 -526.128)"/>
          <path id="Path_12" data-name="Path 12" d="M77.8,583.441h1.032v3.018a3.65,3.65,0,0,1-.048.683,1.661,1.661,0,0,1-.238.6,1.441,1.441,0,0,1-.395.4,1.937,1.937,0,0,1-.565.248,2.786,2.786,0,0,1-.751.094,2.84,2.84,0,0,1-.8-.1,1.722,1.722,0,0,1-.6-.3,1.443,1.443,0,0,1-.373-.427,1.855,1.855,0,0,1-.192-.589,4.059,4.059,0,0,1-.034-.61v-3.018h1.035v3.128a1.793,1.793,0,0,0,.064.549.673.673,0,0,0,.285.337,1.1,1.1,0,0,0,.614.146,1.229,1.229,0,0,0,.583-.11.661.661,0,0,0,.292-.312,1.515,1.515,0,0,0,.094-.61Z" transform="translate(-67.427 -526.128)"/>
          <path id="Path_13" data-name="Path 13" d="M128.12,599.067h-.967v-2.223a.807.807,0,0,0-.156-.556.6.6,0,0,0-.464-.168.674.674,0,0,0-.574.256,1.172,1.172,0,0,0-.192.715v1.976h-.959v-3.651h.928v.539a1.351,1.351,0,0,1,.452-.485,1.469,1.469,0,0,1,1.6.17,1.3,1.3,0,0,1,.336.965Z" transform="translate(-112.456 -536.831)"/>
          <path id="Path_14" data-name="Path 14" d="M167.756,582.866h.959v.891h-.959Zm0,1.329h.959v3.651h-.959Z" transform="translate(-151.154 -525.609)"/>
          <path id="Path_15" data-name="Path 15" d="M183.508,588.046H183v-.683h.512v-.984h.959v.984h.594v.683h-.594v1.959a.683.683,0,0,0,.023.226.157.157,0,0,0,.094.082,1.01,1.01,0,0,0,.292.026c.052,0,.112,0,.185-.01v.713c-.2.013-.354.02-.462.02a2.116,2.116,0,0,1-.674-.077.616.616,0,0,1-.313-.233.768.768,0,0,1-.1-.431Z" transform="translate(-164.886 -528.777)"/>
          <path id="Path_16" data-name="Path 16" d="M227.238,597.243a2.191,2.191,0,0,1,.235-1.01,1.55,1.55,0,0,1,.678-.691,2.072,2.072,0,0,1,.975-.231,2.013,2.013,0,0,1,.991.243,1.535,1.535,0,0,1,.661.7,2.257,2.257,0,0,1,.219.991,2.218,2.218,0,0,1-.231,1.02,1.545,1.545,0,0,1-.674.687,2.049,2.049,0,0,1-.966.23,2.073,2.073,0,0,1-.975-.232,1.565,1.565,0,0,1-.678-.692,2.189,2.189,0,0,1-.235-1.011m1,0a1.387,1.387,0,0,0,.219.806.766.766,0,0,0,.678.316.806.806,0,0,0,.637-.269,1.312,1.312,0,0,0,.238-.875,1.385,1.385,0,0,0-.21-.793.748.748,0,0,0-.665-.306.765.765,0,0,0-.678.317,1.385,1.385,0,0,0-.219.805" transform="translate(-204.75 -536.832)"/>
          <path id="Path_17" data-name="Path 17" d="M270.384,582.778v.777c-.084,0-.155-.006-.217-.006a.776.776,0,0,0-.272.03.17.17,0,0,0-.094.1.922.922,0,0,0-.029.293c0,.054,0,.1,0,.127h.631v.677h-.631v2.974h-.959v-2.974h-.535V584.1h.526a3.724,3.724,0,0,1,.041-.68.74.74,0,0,1,.167-.345.858.858,0,0,1,.352-.231,1.86,1.86,0,0,1,.631-.084q.181,0,.384.02" transform="translate(-241.732 -525.512)"/>
          <rect id="Rectangle_20" data-name="Rectangle 20" width="1.035" height="4.923" transform="translate(31.142 57.313)"/>
          <path id="Path_18" data-name="Path 18" d="M334.5,588.364v-4.923h2.17a1.887,1.887,0,0,1,1.467.539,2.626,2.626,0,0,1,.6,1.839,4.1,4.1,0,0,1-.123,1.032,2.655,2.655,0,0,1-.327.784,1.5,1.5,0,0,1-.448.461,1.608,1.608,0,0,1-.541.21,5.238,5.238,0,0,1-.916.058Zm1.037-4.076v3.225h.9a1.484,1.484,0,0,0,.544-.086.882.882,0,0,0,.347-.236,1.128,1.128,0,0,0,.212-.416,3.222,3.222,0,0,0,.135-.947,2.578,2.578,0,0,0-.085-.681,1.388,1.388,0,0,0-.24-.508.843.843,0,0,0-.354-.273,1.586,1.586,0,0,0-.559-.079Z" transform="translate(-301.399 -526.128)"/>
          <path id="Path_19" data-name="Path 19" d="M385.34,588.364v-4.923h3.681v.847h-2.646v1.092h2.433v.851h-2.433v1.283h2.764v.851Z" transform="translate(-347.206 -526.127)"/>
          <path id="Path_20" data-name="Path 20" d="M426.259,588.364l1.609-2.518-1.519-2.405h1.236l.891,1.591.914-1.591h1.193l-1.521,2.364,1.625,2.559h-1.272l-.941-1.682-1,1.682Z" transform="translate(-384.075 -526.127)"/>
          <path id="Path_21" data-name="Path 21" d="M497.772,583.925a1.276,1.276,0,0,0-.331-.6,1.076,1.076,0,0,0-.74-.255,1.221,1.221,0,0,0-.671.185,1.185,1.185,0,0,0-.452.586,2.532,2.532,0,0,0-.16.941,2.464,2.464,0,0,0,.162.933,1.185,1.185,0,0,0,.445.573,1.159,1.159,0,0,0,.635.179,1.218,1.218,0,0,0,.51-.1.928.928,0,0,0,.37-.293,1.673,1.673,0,0,0,.236-.527h1.03a3.4,3.4,0,0,1-.181.626,2.08,2.08,0,0,1-.414.6,1.848,1.848,0,0,1-.667.434,2.262,2.262,0,0,1-.825.153,2.775,2.775,0,0,1-.95-.159,1.845,1.845,0,0,1-.751-.5,2.283,2.283,0,0,1-.471-.838,3.308,3.308,0,0,1-.164-1.049,3.489,3.489,0,0,1,.222-1.269,2.146,2.146,0,0,1,.418-.695,1.9,1.9,0,0,1,.635-.45,2.618,2.618,0,0,1,1.931-.057,1.921,1.921,0,0,1,.674.425,1.858,1.858,0,0,1,.411.61,1.973,1.973,0,0,1,.132.549Z" transform="translate(-445.458 -524.993)"/>
          <path id="Path_22" data-name="Path 22" d="M543.138,597.243a2.19,2.19,0,0,1,.235-1.01,1.55,1.55,0,0,1,.677-.691,2.072,2.072,0,0,1,.975-.231,2.013,2.013,0,0,1,.991.243,1.535,1.535,0,0,1,.661.7,2.257,2.257,0,0,1,.219.991,2.218,2.218,0,0,1-.231,1.02,1.545,1.545,0,0,1-.674.687,2.049,2.049,0,0,1-.966.23,2.072,2.072,0,0,1-.975-.232,1.564,1.564,0,0,1-.677-.692,2.188,2.188,0,0,1-.235-1.011m1,0a1.388,1.388,0,0,0,.219.806.766.766,0,0,0,.678.316.806.806,0,0,0,.637-.269,1.312,1.312,0,0,0,.238-.875,1.383,1.383,0,0,0-.21-.793.747.747,0,0,0-.665-.306.765.765,0,0,0-.678.317,1.386,1.386,0,0,0-.219.805" transform="translate(-489.387 -536.832)"/>
          <path id="Path_23" data-name="Path 23" d="M590.072,595.337v.974a1.884,1.884,0,0,0-.229-.017,1.133,1.133,0,0,0-.589.134.653.653,0,0,0-.29.321,1.764,1.764,0,0,0-.069.573v1.745h-.957v-3.651h.919v.633a1.351,1.351,0,0,1,.237-.37,1.142,1.142,0,0,1,.359-.274.97.97,0,0,1,.418-.1.777.777,0,0,1,.2.026" transform="translate(-529.754 -536.831)"/>
          <path id="Path_24" data-name="Path 24" d="M613.724,600.48v-5.064h.918v.523h.014a1.546,1.546,0,0,1,.245-.34.947.947,0,0,1,.331-.209,1.291,1.291,0,0,1,.478-.08,1.511,1.511,0,0,1,.724.161,1.384,1.384,0,0,1,.469.379,1.8,1.8,0,0,1,.276.566,2.694,2.694,0,0,1,.107.79,2.959,2.959,0,0,1-.169,1.013,1.389,1.389,0,0,1-.539.717,1.546,1.546,0,0,1-.87.243,1.171,1.171,0,0,1-.6-.139,1.228,1.228,0,0,1-.411-.424h-.012v1.865Zm1.748-4.36a.683.683,0,0,0-.615.321,1.453,1.453,0,0,0-.208.8,1.285,1.285,0,0,0,.233.844.774.774,0,0,0,1.181,0,1.287,1.287,0,0,0,.233-.846,1.468,1.468,0,0,0-.206-.8.683.683,0,0,0-.617-.325" transform="translate(-552.988 -536.831)"/>
          <path id="Path_25" data-name="Path 25" d="M654.392,597.243a2.191,2.191,0,0,1,.235-1.01,1.549,1.549,0,0,1,.677-.691,2.072,2.072,0,0,1,.974-.231,2.013,2.013,0,0,1,.991.243,1.534,1.534,0,0,1,.661.7,2.257,2.257,0,0,1,.219.991,2.219,2.219,0,0,1-.231,1.02,1.546,1.546,0,0,1-.674.687,2.049,2.049,0,0,1-.966.23,2.072,2.072,0,0,1-.974-.232,1.564,1.564,0,0,1-.677-.692,2.189,2.189,0,0,1-.235-1.011m1,0a1.388,1.388,0,0,0,.219.806.767.767,0,0,0,.678.316.806.806,0,0,0,.637-.269,1.312,1.312,0,0,0,.238-.875,1.384,1.384,0,0,0-.21-.793.748.748,0,0,0-.665-.306.765.765,0,0,0-.678.317,1.386,1.386,0,0,0-.219.805" transform="translate(-589.631 -536.832)"/>
          <path id="Path_26" data-name="Path 26" d="M701.325,595.337v.974a1.879,1.879,0,0,0-.229-.017,1.133,1.133,0,0,0-.589.134.654.654,0,0,0-.29.321,1.766,1.766,0,0,0-.069.573v1.745h-.957v-3.651h.919v.633a1.352,1.352,0,0,1,.236-.37,1.143,1.143,0,0,1,.359-.274.97.97,0,0,1,.418-.1.776.776,0,0,1,.2.026" transform="translate(-629.997 -536.831)"/>
          <path id="Path_27" data-name="Path 27" d="M723.285,596.579h-.951a1.266,1.266,0,0,1,.443-.914,1.881,1.881,0,0,1,1.254-.355,2.678,2.678,0,0,1,.661.075,1.164,1.164,0,0,1,.443.194.773.773,0,0,1,.222.3,1.482,1.482,0,0,1,.109.6l0,1.865a1.022,1.022,0,0,0,.057.429.269.269,0,0,0,.165.14v.151h-1.056a1.111,1.111,0,0,1-.091-.425,1.887,1.887,0,0,1-.548.42,1.428,1.428,0,0,1-.6.116,1.365,1.365,0,0,1-.628-.137.89.89,0,0,1-.4-.4,1.239,1.239,0,0,1-.132-.562,1.194,1.194,0,0,1,.242-.764,1.342,1.342,0,0,1,.889-.406l.809-.12a.482.482,0,0,0,.269-.1.264.264,0,0,0,.073-.2.378.378,0,0,0-.133-.308.706.706,0,0,0-.448-.11.743.743,0,0,0-.461.11.621.621,0,0,0-.183.392m1.225.706a1.721,1.721,0,0,1-.242.1,2.854,2.854,0,0,1-.313.079,3.4,3.4,0,0,0-.464.108.5.5,0,0,0-.233.174.46.46,0,0,0-.078.271.472.472,0,0,0,.135.352.477.477,0,0,0,.35.134.931.931,0,0,0,.582-.2.77.77,0,0,0,.263-.646Z" transform="translate(-650.755 -536.831)"/>
          <path id="Path_28" data-name="Path 28" d="M760.353,588.046h-.512v-.683h.512v-.984h.959v.984h.594v.683h-.594v1.959a.68.68,0,0,0,.023.226.156.156,0,0,0,.094.082,1.01,1.01,0,0,0,.292.026c.052,0,.112,0,.185-.01v.713c-.2.013-.354.02-.462.02a2.118,2.118,0,0,1-.674-.077.617.617,0,0,1-.313-.233.77.77,0,0,1-.1-.431Z" transform="translate(-684.645 -528.777)"/>
          <path id="Path_29" data-name="Path 29" d="M787.245,582.866h.959v.891h-.959Zm0,1.329h.959v3.651h-.959Z" transform="translate(-709.337 -525.609)"/>
          <path id="Path_30" data-name="Path 30" d="M804.084,597.243a2.191,2.191,0,0,1,.235-1.01,1.551,1.551,0,0,1,.678-.691,2.072,2.072,0,0,1,.974-.231,2.013,2.013,0,0,1,.991.243,1.535,1.535,0,0,1,.661.7,2.259,2.259,0,0,1,.219.991,2.217,2.217,0,0,1-.231,1.02,1.544,1.544,0,0,1-.674.687,2.049,2.049,0,0,1-.966.23,2.072,2.072,0,0,1-.974-.232,1.566,1.566,0,0,1-.678-.692,2.189,2.189,0,0,1-.235-1.011m1,0a1.387,1.387,0,0,0,.219.806.766.766,0,0,0,.678.316.806.806,0,0,0,.637-.269,1.312,1.312,0,0,0,.238-.875,1.385,1.385,0,0,0-.21-.793.748.748,0,0,0-.665-.306.765.765,0,0,0-.678.317,1.385,1.385,0,0,0-.219.805" transform="translate(-724.509 -536.832)"/>
          <path id="Path_31" data-name="Path 31" d="M852.286,599.067h-.967v-2.223a.808.808,0,0,0-.156-.556.605.605,0,0,0-.464-.168.674.674,0,0,0-.574.256,1.172,1.172,0,0,0-.192.715v1.976h-.959v-3.651h.928v.539a1.352,1.352,0,0,1,.452-.485,1.469,1.469,0,0,1,1.6.17,1.3,1.3,0,0,1,.336.965Z" transform="translate(-764.956 -536.831)"/>
        </g>
      </g>
      <rect id="Rectangle_22" data-name="Rectangle 22" class="cls-1" width="88" height="64" transform="translate(-0.487 -0.487)"/>
    </g>
  </g>
</svg>
