<svg xmlns="http://www.w3.org/2000/svg" xmlns:xlink="http://www.w3.org/1999/xlink" width="137" height="34" viewBox="0 0 137 34">
  <defs>
    <style>
      .cls-1 {
        fill: none;
      }

      .cls-2, .cls-3 {
        fill: #fff;
      }

      .cls-2 {
        opacity: 0;
      }

      .cls-4 {
        fill: #1b325f;
      }

      .cls-5 {
        clip-path: url(#clip-path);
      }

      .cls-6 {
        fill: #a91d34;
      }

      .cls-7 {
        opacity: 0.8;
      }

      .cls-8 {
        clip-path: url(#clip-path-2);
      }

      .cls-9 {
        opacity: 0.6;
      }

      .cls-10 {
        clip-path: url(#clip-path-3);
      }

      .cls-11 {
        opacity: 0.4;
      }

      .cls-12 {
        opacity: 0.2;
      }

      .cls-13 {
        clip-path: url(#clip-path-6);
      }

      .cls-14 {
        clip-path: url(#clip-path-7);
      }
    </style>
    <clipPath id="clip-path">
      <rect id="Rectangle_21" data-name="Rectangle 21" class="cls-1" width="46.417" height="31.117"/>
    </clipPath>
    <clipPath id="clip-path-2">
      <rect id="Rectangle_4" data-name="Rectangle 4" class="cls-1" width="9.284" height="4.42"/>
    </clipPath>
    <clipPath id="clip-path-3">
      <rect id="Rectangle_6" data-name="Rectangle 6" class="cls-1" width="9.283" height="4.42"/>
    </clipPath>
    <clipPath id="clip-path-6">
      <rect id="Rectangle_13" data-name="Rectangle 13" class="cls-1" width="9.284" height="8.841"/>
    </clipPath>
    <clipPath id="clip-path-7">
      <rect id="Rectangle_15" data-name="Rectangle 15" class="cls-1" width="9.283" height="8.841"/>
    </clipPath>
  </defs>
  <g id="Group_43486" data-name="Group 43486" transform="translate(-63 -73)">
    <rect id="Gmmco_Cat_Logo" data-name="Gmmco Cat Logo" class="cls-2" width="137" height="34" transform="translate(63 73)"/>
    <g id="Group_43485" data-name="Group 43485">
      <rect id="Rectangle_21964" data-name="Rectangle 21964" class="cls-3" width="51" height="34" transform="translate(63 73)"/>
      <g id="Group_43480" data-name="Group 43480" transform="translate(65 74)">
        <g id="Group_17268" data-name="Group 17268" transform="translate(0 0)">
          <rect id="Rectangle_1" data-name="Rectangle 1" class="cls-4" width="46.416" height="13.059" transform="translate(0 13.536)"/>
          <path id="Path_1" data-name="Path 1" class="cls-3" d="M55.435,368.224h1.75l-.2.974H55.234l-.334,1.633H53.754l.915-4.455h3.045l-.2.974h-1.9Z" transform="translate(-51.212 -348.736)"/>
          <path id="Path_2" data-name="Path 2" class="cls-3" d="M119.326,370.066l-.369.766h-1.189l2.2-4.455h1.741l.393,4.455h-1.168l-.066-.766Zm1.351-2.8h-.01l-.917,1.93h1.065Z" transform="translate(-112.199 -348.736)"/>
          <g id="Group_26" data-name="Group 26">
            <g id="Group_25" data-name="Group 25" class="cls-5">
              <path id="Path_3" data-name="Path 3" class="cls-3" d="M218.778,367.422c1.384.1,1.695.265,1.462,1.3-.166.748-.3,1.483-2.389,1.483-1.208,0-2.007-.022-1.677-1.507h1.216c-.1.47.062.519.682.519.6,0,.8-.037.885-.416s.016-.386-.571-.423l-.274-.018c-1.155-.078-1.84-.073-1.551-1.369s1.074-1.382,2.315-1.382c1.04,0,1.922.018,1.644,1.268l-.043.187h-1.215c.1-.464-.1-.464-.606-.464-.683,0-.771.132-.826.386-.083.362.1.373.43.4Z" transform="translate(-204.792 -348.054)"/>
              <path id="Path_4" data-name="Path 4" class="cls-3" d="M308.954,370.9h-1.265l.775-3.474h-1.216l.235-1.05h3.761l-.234,1.05h-1.278Z" transform="translate(-291.171 -348.777)"/>
              <path id="Path_5" data-name="Path 5" class="cls-3" d="M380.477,392.47a1.482,1.482,0,0,1-1.124.308c-.914,0-1.53-.09-1.311-1.078.1-.431.287-.878.83-.889a.5.5,0,0,1-.142-.575c.174-.779.6-.91,1.393-.91.808,0,1.22.108,1.028.928l-.039.172h-.818c.047-.19.062-.294.019-.353s-.145-.072-.341-.072c-.243,0-.326.054-.381.3a.328.328,0,0,0,.115.335l.71.743.1-.448h.756l-.148.665a.9.9,0,0,1-.169.331l.318.339-.529.487Zm-1.231-1.264c-.234.023-.272.236-.308.4-.1.458.142.449.575.449a1.306,1.306,0,0,0,.506-.073Z" transform="translate(-358.22 -370.63)"/>
              <path id="Path_6" data-name="Path 6" class="cls-3" d="M468.354,368.253h1.939l-.222.989h-1.938l-.37,1.659H466.5l1.009-4.524h3.37l-.222.989h-2.1Z" transform="translate(-442.088 -348.781)"/>
              <path id="Path_7" data-name="Path 7" class="cls-3" d="M541.8,369.851h1.983l-.235,1.05H540.3l1.009-4.524h1.268Z" transform="translate(-512.031 -348.781)"/>
              <path id="Path_8" data-name="Path 8" class="cls-3" d="M620.045,366.375l-.673,3.016c-.267,1.207-.94,1.544-2.333,1.544-1.9,0-2-.458-1.758-1.544l.673-3.016h1.266l-.666,2.992c-.115.513.187.518.719.518s.731-.042.848-.572l.657-2.938Z" transform="translate(-582.998 -348.78)"/>
              <path id="Path_9" data-name="Path 9" class="cls-3" d="M703.917,370.9H702.65l1.009-4.524h1.267Z" transform="translate(-665.886 -348.777)"/>
              <path id="Path_10" data-name="Path 10" class="cls-3" d="M740.525,366.377h2.406c1.323,0,1.808.471,1.521,1.755l-.211.947c-.277,1.237-.826,1.823-2.149,1.823h-2.578Zm.491,3.474h1.108c.469,0,.705-.3.813-.773l.211-.947c.131-.585-.038-.7-.483-.7h-1.108Z" transform="translate(-700.822 -348.782)"/>
              <rect id="Rectangle_2" data-name="Rectangle 2" class="cls-6" width="9.283" height="4.42" transform="translate(0 8.841)"/>
              <g id="Group_3" data-name="Group 3" class="cls-7" transform="translate(9.283 8.841)">
                <g id="Group_2" data-name="Group 2">
                  <g id="Group_1" data-name="Group 1" class="cls-8">
                    <rect id="Rectangle_3" data-name="Rectangle 3" class="cls-6" width="9.284" height="4.42"/>
                  </g>
                </g>
              </g>
              <g id="Group_6" data-name="Group 6" class="cls-9" transform="translate(18.567 8.841)">
                <g id="Group_5" data-name="Group 5">
                  <g id="Group_4" data-name="Group 4" class="cls-10">
                    <rect id="Rectangle_5" data-name="Rectangle 5" class="cls-6" width="9.283" height="4.42"/>
                  </g>
                </g>
              </g>
              <g id="Group_9" data-name="Group 9" class="cls-11" transform="translate(27.85 8.841)">
                <g id="Group_8" data-name="Group 8">
                  <g id="Group_7" data-name="Group 7" class="cls-10">
                    <rect id="Rectangle_7" data-name="Rectangle 7" class="cls-6" width="9.283" height="4.42"/>
                  </g>
                </g>
              </g>
              <g id="Group_12" data-name="Group 12" class="cls-12" transform="translate(37.133 8.841)">
                <g id="Group_11" data-name="Group 11">
                  <g id="Group_10" data-name="Group 10" class="cls-8">
                    <rect id="Rectangle_9" data-name="Rectangle 9" class="cls-6" width="9.284" height="4.42"/>
                  </g>
                </g>
              </g>
              <rect id="Rectangle_11" data-name="Rectangle 11" class="cls-4" width="9.283" height="8.841"/>
              <g id="Group_15" data-name="Group 15" class="cls-7" transform="translate(9.283)">
                <g id="Group_14" data-name="Group 14">
                  <g id="Group_13" data-name="Group 13" class="cls-13">
                    <rect id="Rectangle_12" data-name="Rectangle 12" class="cls-4" width="9.284" height="8.841"/>
                  </g>
                </g>
              </g>
              <g id="Group_18" data-name="Group 18" class="cls-9" transform="translate(18.567)">
                <g id="Group_17" data-name="Group 17">
                  <g id="Group_16" data-name="Group 16" class="cls-14">
                    <rect id="Rectangle_14" data-name="Rectangle 14" class="cls-4" width="9.283" height="8.841"/>
                  </g>
                </g>
              </g>
              <g id="Group_21" data-name="Group 21" class="cls-11" transform="translate(27.85)">
                <g id="Group_20" data-name="Group 20">
                  <g id="Group_19" data-name="Group 19" class="cls-14">
                    <rect id="Rectangle_16" data-name="Rectangle 16" class="cls-4" width="9.283" height="8.841"/>
                  </g>
                </g>
              </g>
              <g id="Group_24" data-name="Group 24" class="cls-12" transform="translate(37.133)">
                <g id="Group_23" data-name="Group 23">
                  <g id="Group_22" data-name="Group 22" class="cls-13">
                    <rect id="Rectangle_18" data-name="Rectangle 18" class="cls-4" width="9.284" height="8.841"/>
                  </g>
                </g>
              </g>
              <path id="Path_11" data-name="Path 11" d="M1.406,585.848l.938-2.407h.626l.927,2.407H3.3l-.167-.5H2.166l-.182.5Zm.906-.912h.669l-.326-.953H2.647Z" transform="translate(-1.332 -555.421)"/>
              <path id="Path_12" data-name="Path 12" d="M76.4,583.441h.545v1.475a1.655,1.655,0,0,1-.025.334.779.779,0,0,1-.126.3.736.736,0,0,1-.209.2,1.069,1.069,0,0,1-.3.121,1.591,1.591,0,0,1-.4.046,1.618,1.618,0,0,1-.423-.051.941.941,0,0,1-.318-.146.725.725,0,0,1-.2-.209.862.862,0,0,1-.1-.288,1.838,1.838,0,0,1-.018-.3v-1.475h.547v1.529a.814.814,0,0,0,.034.268.336.336,0,0,0,.15.165.62.62,0,0,0,.324.071.7.7,0,0,0,.308-.054.336.336,0,0,0,.154-.152.691.691,0,0,0,.05-.3Z" transform="translate(-70.918 -555.421)"/>
              <path id="Path_13" data-name="Path 13" d="M126.559,597.147h-.511V596.06a.375.375,0,0,0-.083-.272.335.335,0,0,0-.245-.082.369.369,0,0,0-.3.125.541.541,0,0,0-.1.35v.966h-.507v-1.785h.491v.264a.686.686,0,0,1,.239-.237.829.829,0,0,1,.844.083.606.606,0,0,1,.178.472Z" transform="translate(-118.277 -566.72)"/>
              <path id="Path_14" data-name="Path 14" d="M167.756,582.866h.507v.435h-.507Zm0,.65h.507V585.3h-.507Z" transform="translate(-158.979 -554.874)"/>
              <path id="Path_15" data-name="Path 15" d="M183.267,587.194H183v-.334h.271v-.481h.507v.481h.314v.334h-.314v.958a.311.311,0,0,0,.012.11.081.081,0,0,0,.05.04.577.577,0,0,0,.154.013c.027,0,.059,0,.1,0v.349c-.106.006-.187.01-.244.01a1.2,1.2,0,0,1-.356-.038.324.324,0,0,1-.165-.114.354.354,0,0,1-.055-.211Z" transform="translate(-173.421 -558.218)"/>
              <path id="Path_16" data-name="Path 16" d="M227.238,596.256a1.006,1.006,0,0,1,.124-.494.79.79,0,0,1,.358-.338,1.169,1.169,0,0,1,.515-.113,1.134,1.134,0,0,1,.524.119.779.779,0,0,1,.35.341,1.035,1.035,0,0,1,.116.485,1.018,1.018,0,0,1-.122.5.788.788,0,0,1-.356.336,1.157,1.157,0,0,1-.511.112,1.17,1.17,0,0,1-.515-.114.8.8,0,0,1-.358-.338,1,1,0,0,1-.124-.494m.527,0a.641.641,0,0,0,.116.394.418.418,0,0,0,.358.154.443.443,0,0,0,.337-.132.607.607,0,0,0,.126-.428.639.639,0,0,0-.111-.388.408.408,0,0,0-.352-.15.417.417,0,0,0-.358.155.64.64,0,0,0-.116.394" transform="translate(-215.348 -566.721)"/>
              <path id="Path_17" data-name="Path 17" d="M269.393,582.768v.38c-.044,0-.082,0-.115,0a.442.442,0,0,0-.144.015.086.086,0,0,0-.05.048.416.416,0,0,0-.015.143c0,.026,0,.047,0,.062h.334v.331h-.334V585.2h-.507v-1.454h-.283v-.331h.278a1.691,1.691,0,0,1,.022-.332.351.351,0,0,1,.088-.169.459.459,0,0,1,.186-.113,1.062,1.062,0,0,1,.334-.041c.064,0,.132,0,.2.01" transform="translate(-254.245 -554.771)"/>
              <rect id="Rectangle_20" data-name="Rectangle 20" width="0.547" height="2.407" transform="translate(16.465 28.02)"/>
              <path id="Path_18" data-name="Path 18" d="M334.5,585.848v-2.407h1.147a1.044,1.044,0,0,1,.776.264,1.223,1.223,0,0,1,.318.9,1.86,1.86,0,0,1-.065.5,1.246,1.246,0,0,1-.173.383.763.763,0,0,1-.237.226.894.894,0,0,1-.286.1,2.992,2.992,0,0,1-.484.028Zm.548-1.993v1.577h.478a.843.843,0,0,0,.288-.042.471.471,0,0,0,.183-.115.536.536,0,0,0,.112-.2,1.465,1.465,0,0,0,.071-.463,1.169,1.169,0,0,0-.045-.333.658.658,0,0,0-.127-.248.445.445,0,0,0-.187-.134.9.9,0,0,0-.3-.038Z" transform="translate(-317 -555.421)"/>
              <path id="Path_19" data-name="Path 19" d="M385.34,585.848v-2.407h1.946v.414h-1.4v.534h1.286v.416h-1.286v.627h1.461v.416Z" transform="translate(-365.179 -555.421)"/>
              <path id="Path_20" data-name="Path 20" d="M426.259,585.848l.851-1.231-.8-1.176h.653l.471.778.483-.778h.631l-.8,1.156.859,1.251h-.672l-.5-.822-.53.822Z" transform="translate(-403.956 -555.421)"/>
              <path id="Path_21" data-name="Path 21" d="M496.175,583.034a.614.614,0,0,0-.175-.293.6.6,0,0,0-.391-.125.685.685,0,0,0-.355.09.588.588,0,0,0-.239.286,1.153,1.153,0,0,0-.085.46,1.123,1.123,0,0,0,.086.456.589.589,0,0,0,.235.28.65.65,0,0,0,.336.088.69.69,0,0,0,.27-.051.488.488,0,0,0,.2-.143.791.791,0,0,0,.125-.258h.544a1.58,1.58,0,0,1-.1.306,1.018,1.018,0,0,1-.219.292.986.986,0,0,1-.353.212,1.28,1.28,0,0,1-.436.075,1.575,1.575,0,0,1-.5-.078.983.983,0,0,1-.4-.243,1.1,1.1,0,0,1-.249-.41,1.5,1.5,0,0,1-.086-.513,1.591,1.591,0,0,1,.117-.62,1.038,1.038,0,0,1,.221-.34,1.01,1.01,0,0,1,.336-.22,1.49,1.49,0,0,1,1.021-.028,1.03,1.03,0,0,1,.356.208.865.865,0,0,1,.287.567Z" transform="translate(-468.517 -554.224)"/>
              <path id="Path_22" data-name="Path 22" d="M543.138,596.256a1.006,1.006,0,0,1,.124-.494.791.791,0,0,1,.358-.338,1.168,1.168,0,0,1,.515-.113,1.135,1.135,0,0,1,.524.119.78.78,0,0,1,.35.341,1.036,1.036,0,0,1,.116.485,1.018,1.018,0,0,1-.122.5.788.788,0,0,1-.356.336,1.157,1.157,0,0,1-.511.112,1.17,1.17,0,0,1-.515-.114.8.8,0,0,1-.358-.338,1,1,0,0,1-.124-.494m.527,0a.641.641,0,0,0,.116.394.418.418,0,0,0,.358.154.443.443,0,0,0,.337-.132.608.608,0,0,0,.126-.428.639.639,0,0,0-.111-.388.408.408,0,0,0-.352-.15.417.417,0,0,0-.358.155.64.64,0,0,0-.116.394" transform="translate(-514.72 -566.721)"/>
              <path id="Path_23" data-name="Path 23" d="M589.066,595.323v.476a1.1,1.1,0,0,0-.121-.008.638.638,0,0,0-.311.066.329.329,0,0,0-.153.157.8.8,0,0,0-.037.28v.853h-.506v-1.785h.486v.309a.662.662,0,0,1,.125-.181.6.6,0,0,1,.19-.134.548.548,0,0,1,.221-.047.443.443,0,0,1,.106.013" transform="translate(-557.176 -566.72)"/>
              <path id="Path_24" data-name="Path 24" d="M613.724,597.838v-2.475h.485v.255h.008a.76.76,0,0,1,.13-.166.508.508,0,0,1,.175-.1.733.733,0,0,1,.253-.039.854.854,0,0,1,.383.078.724.724,0,0,1,.248.185.858.858,0,0,1,.146.277,1.225,1.225,0,0,1,.056.386,1.351,1.351,0,0,1-.089.5.688.688,0,0,1-.285.35.869.869,0,0,1-.46.119.661.661,0,0,1-.319-.068.628.628,0,0,1-.217-.207h-.006v.912Zm.924-2.132a.37.37,0,0,0-.325.157.671.671,0,0,0-.11.393.6.6,0,0,0,.123.412.431.431,0,0,0,.624,0,.6.6,0,0,0,.123-.413.677.677,0,0,0-.109-.391.37.37,0,0,0-.326-.159" transform="translate(-581.612 -566.72)"/>
              <path id="Path_25" data-name="Path 25" d="M654.392,596.256a1.006,1.006,0,0,1,.124-.494.79.79,0,0,1,.358-.338,1.169,1.169,0,0,1,.515-.113,1.135,1.135,0,0,1,.524.119.78.78,0,0,1,.35.341,1.036,1.036,0,0,1,.116.485,1.018,1.018,0,0,1-.122.5.789.789,0,0,1-.356.336,1.157,1.157,0,0,1-.511.112,1.17,1.17,0,0,1-.515-.114.8.8,0,0,1-.358-.338,1,1,0,0,1-.124-.494m.527,0a.641.641,0,0,0,.116.394.418.418,0,0,0,.358.154.443.443,0,0,0,.337-.132.608.608,0,0,0,.126-.428.639.639,0,0,0-.111-.388.408.408,0,0,0-.352-.15.417.417,0,0,0-.358.155.639.639,0,0,0-.116.394" transform="translate(-620.153 -566.721)"/>
              <path id="Path_26" data-name="Path 26" d="M700.319,595.323v.476a1.1,1.1,0,0,0-.121-.008.639.639,0,0,0-.311.066.33.33,0,0,0-.153.157.8.8,0,0,0-.037.28v.853h-.506v-1.785h.486v.309a.656.656,0,0,1,.125-.181.6.6,0,0,1,.19-.134.547.547,0,0,1,.221-.047.443.443,0,0,1,.106.013" transform="translate(-662.608 -566.72)"/>
              <path id="Path_27" data-name="Path 27" d="M722.787,595.931h-.5a.6.6,0,0,1,.234-.447,1.053,1.053,0,0,1,.663-.173,1.524,1.524,0,0,1,.35.037.644.644,0,0,1,.234.095.383.383,0,0,1,.117.148.678.678,0,0,1,.057.293l0,.912a.463.463,0,0,0,.03.21.14.14,0,0,0,.087.069v.074H723.5a.509.509,0,0,1-.048-.208.993.993,0,0,1-.29.205.809.809,0,0,1-.319.057.77.77,0,0,1-.332-.067.453.453,0,0,1-.211-.2.569.569,0,0,1-.07-.275.555.555,0,0,1,.128-.373.734.734,0,0,1,.47-.2l.428-.059a.267.267,0,0,0,.142-.048.123.123,0,0,0,.039-.1.179.179,0,0,0-.071-.151.4.4,0,0,0-.237-.054.418.418,0,0,0-.244.054.3.3,0,0,0-.1.192m.648.345a.95.95,0,0,1-.128.05,1.594,1.594,0,0,1-.165.038,1.924,1.924,0,0,0-.245.053.264.264,0,0,0-.123.085.213.213,0,0,0-.041.132.222.222,0,0,0,.071.172.264.264,0,0,0,.185.066.518.518,0,0,0,.308-.1.364.364,0,0,0,.139-.316Z" transform="translate(-684.44 -566.72)"/>
              <path id="Path_28" data-name="Path 28" d="M760.112,587.194h-.271v-.334h.271v-.481h.507v.481h.314v.334h-.314v.958a.312.312,0,0,0,.012.11.082.082,0,0,0,.05.04.577.577,0,0,0,.154.013c.027,0,.059,0,.1,0v.349c-.106.006-.187.01-.244.01a1.205,1.205,0,0,1-.356-.038.324.324,0,0,1-.166-.114.354.354,0,0,1-.055-.211Z" transform="translate(-720.084 -558.218)"/>
              <path id="Path_29" data-name="Path 29" d="M787.245,582.866h.507v.435h-.507Zm0,.65h.507V585.3h-.507Z" transform="translate(-746.055 -554.874)"/>
              <path id="Path_30" data-name="Path 30" d="M804.084,596.256a1,1,0,0,1,.124-.494.791.791,0,0,1,.358-.338,1.168,1.168,0,0,1,.515-.113,1.134,1.134,0,0,1,.524.119.78.78,0,0,1,.35.341,1.036,1.036,0,0,1,.116.485,1.02,1.02,0,0,1-.122.5.788.788,0,0,1-.357.336,1.155,1.155,0,0,1-.51.112,1.169,1.169,0,0,1-.515-.114.8.8,0,0,1-.358-.338,1,1,0,0,1-.124-.494m.526,0a.642.642,0,0,0,.116.394.418.418,0,0,0,.358.154.444.444,0,0,0,.337-.132.608.608,0,0,0,.126-.428.639.639,0,0,0-.111-.388.408.408,0,0,0-.352-.15.417.417,0,0,0-.358.155.64.64,0,0,0-.116.394" transform="translate(-762.013 -566.721)"/>
              <path id="Path_31" data-name="Path 31" d="M850.725,597.147h-.511V596.06a.375.375,0,0,0-.083-.272.336.336,0,0,0-.246-.082.369.369,0,0,0-.3.125.542.542,0,0,0-.1.35v.966h-.507v-1.785h.491v.264a.687.687,0,0,1,.239-.237.829.829,0,0,1,.844.083.606.606,0,0,1,.178.472Z" transform="translate(-804.553 -566.72)"/>
            </g>
          </g>
          <rect id="Rectangle_22" data-name="Rectangle 22" class="cls-1" width="46.417" height="31.117"/>
        </g>
      </g>
    </g>
  </g>
</svg>
